<?xml version="1.0" standalone="no"?>
<!DOCTYPE svg PUBLIC "-//W3C//DTD SVG 20010904//EN"
 "http://www.w3.org/TR/2001/REC-SVG-20010904/DTD/svg10.dtd">
<svg version="1.0" xmlns="http://www.w3.org/2000/svg"
 width="1000.000000pt" height="167.000000pt" viewBox="0 0 1000.000000 167.000000"
 preserveAspectRatio="xMidYMid meet">

<g transform="translate(0.000000,167.000000) scale(0.100000,-0.100000)"
fill="#000000" stroke="none">
<path d="M7869 1558 c-11 -4 -19 -17 -19 -29 0 -24 47 -80 265 -314 83 -89
187 -203 233 -253 l84 -92 -54 -57 c-59 -64 -121 -131 -386 -416 l-184 -197
-25 37 c-25 37 -25 47 3 141 2 7 -5 21 -16 32 -18 18 -36 19 -286 19 -148 0
-275 -4 -285 -10 -10 -5 -20 -17 -23 -26 -5 -16 -22 -18 -155 -18 -145 0 -150
1 -155 21 -8 29 -31 34 -162 34 -78 0 -116 -4 -129 -14 -17 -12 -20 -11 -30 8
-9 17 -21 22 -71 24 -53 2 -62 0 -83 -22 -22 -24 -23 -24 -42 -5 -10 10 -30
19 -44 19 -30 0 -65 -32 -65 -60 0 -19 -7 -20 -185 -20 l-186 0 -17 -29 c-17
-29 -49 -51 -77 -51 -11 0 -15 18 -17 73 l-3 72 -55 0 c-32 0 -61 6 -69 13
-10 10 -31 12 -75 8 -171 -17 -252 -21 -260 -14 -19 16 -53 6 -186 -50 -123
-53 -135 -60 -140 -87 -5 -27 -6 -27 -20 -10 -12 14 -12 19 -2 23 18 6 62 78
62 101 0 11 -9 25 -19 31 -29 15 -114 12 -137 -5 -10 -8 -40 -15 -65 -15 -44
0 -46 -2 -112 -81 -37 -44 -67 -86 -67 -93 0 -24 24 -36 71 -36 43 0 51 4 79
38 l31 37 17 -21 c81 -102 83 -104 139 -104 47 0 53 2 59 24 4 16 17 29 36 35
40 14 38 15 38 -13 0 -35 22 -48 77 -44 l48 3 3 61 c3 60 3 62 41 79 32 14 43
15 61 5 14 -7 45 -10 76 -8 69 6 69 -6 2 -22 -59 -14 -78 -31 -78 -72 0 -58
79 -68 175 -22 34 16 115 95 115 113 0 5 9 7 20 4 17 -5 20 -14 20 -62 0 -31
5 -62 12 -69 15 -15 138 -16 189 0 22 6 56 25 77 42 l37 31 143 -3 c135 -3
142 -4 142 -23 0 -42 18 -59 65 -59 47 0 65 16 65 60 0 16 5 20 18 16 100 -29
133 -36 142 -31 5 3 10 -1 10 -9 0 -8 9 -20 19 -26 26 -13 298 -13 306 0 5 8
11 7 21 -1 21 -18 132 -6 182 20 23 12 49 32 58 46 9 14 26 25 38 25 18 0 21
-6 21 -40 0 -59 18 -72 85 -61 30 5 67 14 81 20 38 14 95 66 108 99 11 27 14
28 79 25 83 -3 81 -3 57 -13 -11 -5 -37 -9 -58 -9 -59 -1 -77 -15 -77 -59 0
-21 5 -43 12 -50 16 -16 94 -15 151 2 40 12 48 12 59 -1 8 -10 26 -14 55 -11
34 2 43 0 43 -12 0 -38 16 -40 315 -40 l292 0 198 215 c110 118 202 215 206
215 4 0 9 -4 11 -9 4 -12 349 -386 377 -408 11 -10 86 -13 300 -13 157 0 291
4 297 8 6 4 13 15 17 25 7 20 41 -17 -530 601 -62 66 -112 124 -113 129 0 4
127 145 283 313 155 168 286 314 291 325 21 45 2 48 -313 50 l-295 2 -24 -29
c-13 -16 -70 -78 -126 -139 -56 -60 -119 -128 -139 -150 l-37 -40 -118 125
c-64 69 -139 149 -167 178 l-50 53 -283 2 c-156 1 -292 -1 -303 -5z m741 -223
c95 -102 176 -185 180 -185 4 0 40 37 81 83 40 45 99 109 130 142 31 33 73 79
94 103 l37 42 275 0 275 0 -63 -72 c-60 -67 -420 -459 -496 -539 l-34 -36 332
-359 332 -359 -274 -3 -274 -3 -50 56 c-175 194 -361 393 -367 392 -4 -1 -100
-102 -213 -224 l-206 -223 -270 0 c-161 0 -269 4 -267 9 2 5 109 124 238 263
310 334 404 439 408 449 3 7 -377 426 -537 592 l-55 57 276 0 276 0 172 -185z
m-3700 -930 c0 -16 -26 -55 -37 -55 -23 0 -14 -17 43 -84 l55 -66 -29 0 c-23
0 -38 12 -81 65 -29 36 -58 68 -63 71 -5 4 -29 -15 -51 -41 -32 -36 -48 -46
-66 -44 -23 4 -22 7 28 67 56 66 87 78 122 46 16 -15 19 -14 34 15 8 17 22 31
30 31 8 0 15 -2 15 -5z m60 0 c0 -15 -34 -55 -46 -55 -18 0 -18 10 2 38 13 19
44 31 44 17z m596 -25 c14 -23 14 -28 -11 -73 -33 -58 -83 -94 -149 -106 -39
-7 -49 -6 -53 6 -7 17 13 33 40 33 45 0 127 64 127 99 0 6 -39 8 -95 6 l-95
-4 0 25 c0 24 1 24 95 24 61 0 95 4 95 11 0 19 31 5 46 -21z m59 0 c19 -37 19
-39 -4 -33 -10 2 -24 16 -30 29 -14 32 -14 34 4 34 8 0 21 -13 30 -30z m825
20 c0 -19 -32 -60 -46 -60 -18 0 -18 6 3 41 17 28 43 40 43 19z m60 0 c0 -6
-12 -23 -27 -38 -31 -31 -44 -15 -19 23 16 25 46 34 46 15z m-1240 -21 c0 -15
-13 -26 -50 -42 l-50 -21 0 -58 c0 -55 -1 -58 -25 -58 -23 0 -25 4 -25 46 0
42 -1 45 -22 38 -13 -3 -35 -13 -50 -20 -36 -18 -38 -18 -38 9 0 20 14 29 108
66 60 23 115 47 123 52 22 14 29 11 29 -12z m450 -64 l0 -75 35 0 c49 0 98 22
121 55 14 18 27 26 43 23 l23 -3 -24 -34 c-41 -61 -71 -76 -159 -80 l-79 -3 0
96 c0 89 1 96 20 96 18 0 20 -7 20 -75z m612 48 c3 -26 9 -30 96 -53 83 -22
92 -27 92 -48 0 -19 -4 -22 -21 -17 -48 15 -154 45 -161 45 -5 0 -8 -20 -8
-45 0 -41 -2 -45 -25 -45 -25 0 -25 0 -25 95 0 94 0 95 24 95 19 0 25 -6 28
-27z m498 8 c0 -17 -8 -20 -47 -23 l-48 -3 -3 -52 -3 -53 55 0 c49 0 56 -2 56
-20 0 -19 -7 -20 -130 -20 -123 0 -130 1 -130 20 0 18 7 20 55 20 l55 0 0 55
0 55 -50 0 c-35 0 -50 4 -50 13 0 24 12 27 127 27 105 0 113 -1 113 -19z m616
-13 c-11 -57 -53 -115 -98 -136 -58 -28 -122 -33 -126 -10 -2 13 6 19 35 24
51 9 87 28 112 60 34 43 28 49 -49 48 -59 -1 -72 -5 -88 -24 -11 -14 -26 -21
-40 -18 l-22 3 26 43 25 42 116 0 116 0 -7 -32z m296 7 c-1 -11 -10 -37 -19
-57 -15 -35 -15 -37 12 -72 l27 -36 -30 0 c-19 0 -35 7 -43 21 -14 19 -15 20
-49 3 -19 -10 -58 -20 -87 -22 -49 -4 -53 -3 -53 17 0 18 6 21 38 21 54 1 118
33 137 69 8 17 14 32 13 32 -2 1 -43 3 -92 5 -48 1 -90 5 -93 8 -3 3 -3 12 1
21 5 13 24 15 123 13 112 -3 118 -4 115 -23z m-1134 -53 c28 -2 42 -8 42 -18
0 -10 -12 -14 -42 -13 -35 0 -47 5 -66 29 -19 25 -21 32 -10 49 12 19 13 19
23 -12 9 -29 15 -32 53 -35z m365 -2 c16 -26 16 -30 3 -30 -9 0 -19 0 -22 -1
-4 0 -16 13 -26 30 l-20 31 24 0 c16 0 30 -10 41 -30z m67 5 c7 -14 17 -25 22
-25 5 0 14 11 20 25 15 33 52 35 43 3 -19 -65 -73 -107 -148 -115 -47 -5 -57
-3 -57 9 0 10 13 18 36 23 44 8 84 25 84 37 0 4 -5 7 -11 6 -7 -2 -21 12 -31
30 l-20 32 24 0 c16 0 29 -9 38 -25z m-154 -16 c18 -35 6 -61 -16 -34 -8 9
-29 15 -56 15 -32 0 -44 4 -44 15 0 11 11 15 39 15 22 0 43 5 46 10 9 15 13
13 31 -21z m-658 4 c-3 -16 -18 -18 -126 -21 -117 -2 -122 -2 -122 18 0 19 6
20 126 20 114 0 125 -2 122 -17z m1082 -2 c0 -9 -24 -21 -41 -21 -16 0 -10 18
9 23 28 8 32 7 32 -2z"/>
<path d="M8140 1414 c0 -3 107 -121 238 -262 131 -142 242 -263 246 -270 8
-13 -6 -29 -372 -424 l-183 -198 128 0 128 1 230 250 c126 137 232 248 235
247 4 -2 110 -114 235 -251 l229 -247 124 0 125 0 -19 22 c-10 12 -137 150
-281 306 l-263 285 98 105 c53 59 166 181 251 272 l154 165 -124 3 -124 3 -55
-58 c-30 -32 -122 -131 -203 -220 l-148 -162 -202 219 -202 219 -122 1 c-68 0
-123 -3 -123 -6z m311 -126 c174 -195 322 -348 338 -348 9 0 107 99 219 220
l202 220 72 0 71 0 -44 -47 c-24 -27 -123 -133 -219 -236 -96 -103 -179 -199
-184 -212 -9 -21 -3 -31 45 -82 30 -32 91 -99 135 -148 45 -50 136 -148 203
-220 66 -72 121 -133 121 -136 0 -3 -29 -7 -64 -8 l-64 -2 -98 108 c-305 332
-376 403 -399 403 -17 0 -49 -28 -117 -104 -51 -57 -156 -171 -233 -252 l-139
-149 -63 -1 c-35 -1 -63 1 -63 6 0 8 48 62 312 348 126 136 188 210 188 225 0
14 -39 64 -106 137 -58 63 -146 159 -195 212 -49 53 -101 110 -115 127 l-26
31 70 0 71 0 82 -92z"/>
<path d="M220 1281 c-6 -13 -10 -158 -10 -405 0 -343 2 -386 16 -401 15 -15
56 -16 398 -13 l381 3 56 26 c53 25 109 80 109 107 0 7 4 12 10 12 5 0 7 -21
3 -50 -4 -37 -2 -56 11 -75 l16 -25 434 0 c391 0 435 2 447 17 10 11 14 46 14
116 -1 86 -3 101 -20 113 -15 11 -80 14 -327 14 -301 0 -308 0 -308 20 0 19 7
20 264 20 227 0 267 2 280 16 20 20 23 203 4 222 -9 9 -85 12 -280 12 -261 0
-268 0 -268 20 0 20 7 20 314 20 241 0 317 3 323 13 4 6 10 40 13 75 l5 63 85
-102 c47 -56 99 -118 116 -138 18 -20 59 -70 93 -111 l61 -75 0 -145 c0 -100
4 -150 12 -158 17 -17 259 -17 276 0 8 8 12 58 12 158 l0 146 52 65 c28 35 54
66 58 69 4 3 38 44 76 91 38 47 93 114 122 148 l52 62 0 -360 c0 -319 2 -361
16 -376 15 -15 56 -16 398 -13 l381 3 58 29 c44 21 66 40 88 74 l29 46 0 -61
c0 -43 5 -66 16 -77 14 -14 79 -16 580 -16 l565 0 30 48 c16 26 85 143 151
260 l121 213 37 -63 c20 -35 53 -93 74 -130 l38 -68 -104 0 c-122 0 -120 1
-186 -117 -52 -93 -56 -107 -36 -127 15 -15 79 -16 718 -14 l701 3 56 23 c32
12 77 41 102 63 45 39 105 141 109 183 1 12 4 -41 7 -117 5 -107 9 -140 21
-147 24 -15 873 -13 888 2 16 16 16 220 0 236 -9 9 -95 12 -325 12 -306 0
-313 0 -313 20 0 19 7 20 258 20 320 0 302 -8 302 129 0 62 -4 101 -12 109 -9
9 -85 12 -280 12 -261 0 -268 0 -268 20 0 20 7 20 315 20 366 0 335 -12 335
125 0 138 49 125 -455 125 -381 0 -435 -2 -449 -16 -13 -12 -16 -41 -17 -142
-1 -119 -2 -124 -14 -86 -19 59 -56 115 -110 162 -84 74 -96 76 -480 80 -314
3 -340 2 -352 -14 -10 -14 -13 -99 -13 -368 l0 -350 -208 365 -208 364 -126 3
c-92 2 -128 -1 -135 -10 -10 -12 -274 -473 -369 -643 l-39 -70 -3 60 c-2 32
-8 65 -14 72 -8 10 -81 13 -324 13 l-314 0 0 278 c0 203 -3 281 -12 290 -17
17 -229 17 -246 0 -9 -9 -12 -79 -12 -252 -1 -241 -1 -241 -19 -206 -11 19
-28 43 -39 53 -19 17 -19 18 -1 55 14 26 19 57 19 112 -1 119 -35 176 -135
222 -50 23 -52 23 -558 26 -279 1 -514 -1 -521 -5 -14 -9 -78 -85 -168 -201
l-56 -72 -104 126 c-57 70 -109 133 -116 140 -10 11 -123 13 -602 14 -588 0
-589 0 -600 -21 -8 -14 -11 -94 -8 -250 2 -126 0 -229 -4 -229 -5 0 -8 6 -8
13 0 8 -13 32 -30 55 -29 40 -29 41 -12 74 24 46 22 170 -2 218 -24 46 -54 78
-91 98 -73 37 -122 42 -467 42 -323 0 -338 -1 -348 -19z m738 -36 c56 -17 105
-53 126 -94 36 -69 28 -175 -18 -228 l-24 -28 33 -22 c86 -59 99 -239 22 -311
-58 -55 -73 -57 -474 -60 l-373 -3 0 380 0 381 328 0 c265 0 338 -3 380 -15z
m1102 -70 l0 -85 -322 -2 -323 -3 0 -55 0 -55 278 -3 278 -2 -3 -83 -3 -82
-277 -3 -278 -2 0 -60 0 -60 325 0 325 0 0 -90 0 -90 -417 2 -418 3 -3 378 -2
377 420 0 420 0 0 -85z m424 -65 c66 -82 122 -150 125 -150 3 0 60 68 125 150
l119 150 123 0 c68 0 124 -2 124 -5 0 -3 -85 -108 -190 -233 l-190 -227 0
-147 0 -148 -110 0 -110 0 0 146 0 146 -93 111 c-51 62 -139 167 -195 235
l-102 122 128 0 127 0 119 -150z m1417 124 c25 -12 58 -37 73 -56 51 -68 52
-197 2 -255 l-23 -26 43 -41 c64 -62 82 -160 45 -241 -22 -48 -43 -68 -96 -92
-36 -16 -81 -18 -412 -21 l-373 -3 0 381 0 381 348 -3 c330 -3 349 -4 393 -24z
m419 -264 l0 -290 325 0 325 0 0 -90 0 -90 -420 0 -420 0 0 380 0 380 95 0 95
0 0 -290z m1375 223 c20 -38 61 -108 89 -158 189 -323 296 -514 296 -526 0 -5
-153 -9 -339 -9 l-340 0 41 73 c65 114 52 107 200 107 l129 0 -38 68 c-20 37
-70 122 -109 190 l-72 123 -61 -108 c-33 -59 -104 -184 -158 -278 l-98 -170
-107 -3 c-60 -1 -108 -1 -108 1 0 4 316 560 391 690 l40 67 104 0 103 0 37
-67z m1169 28 c108 -53 164 -149 173 -298 13 -194 -60 -341 -195 -395 -54 -21
-73 -23 -379 -26 l-323 -3 0 381 0 381 328 -3 327 -3 69 -34z m1086 -46 l0
-85 -325 0 -326 0 3 -57 3 -58 278 -3 278 -2 -3 -83 -3 -82 -277 -3 -278 -2 0
-60 0 -60 328 -2 327 -3 0 -85 0 -85 -420 0 -420 0 -3 378 -2 377 420 0 420 0
0 -85z"/>
<path d="M440 1030 l0 -60 208 0 c237 0 257 5 257 60 0 55 -20 60 -257 60
l-208 0 0 -60z m426 9 c14 -23 -26 -29 -203 -29 -176 0 -183 1 -183 20 0 19 7
20 189 20 129 0 192 -4 197 -11z"/>
<path d="M440 740 l0 -60 247 2 248 3 13 28 c11 22 11 32 0 55 l-13 27 -248 3
-247 2 0 -60z m470 0 c0 -19 -7 -20 -215 -20 -208 0 -215 1 -215 20 0 19 7 20
215 20 208 0 215 -1 215 -20z"/>
<path d="M3350 1029 l0 -60 221 3 c205 3 222 4 235 22 19 27 18 52 -6 76 -19
19 -33 20 -235 20 l-215 0 0 -61z m426 10 c14 -23 -26 -29 -203 -29 -176 0
-183 1 -183 20 0 19 7 20 189 20 129 0 192 -4 197 -11z"/>
<path d="M3350 740 l0 -60 243 0 c176 0 246 3 255 12 17 17 15 74 -4 92 -13
14 -51 16 -255 16 l-239 0 0 -60z m470 0 c0 -19 -7 -20 -215 -20 -208 0 -215
1 -215 20 0 19 7 20 215 20 208 0 215 -1 215 -20z"/>
<path d="M6330 885 l0 -205 185 0 c203 0 230 6 276 56 40 45 52 85 47 168 -4
80 -18 110 -70 149 -38 29 -95 36 -275 37 l-163 0 0 -205z m390 149 c57 -23
83 -69 83 -149 0 -76 -22 -119 -73 -146 -30 -16 -58 -19 -197 -19 l-163 0 0
165 0 165 155 0 c118 0 164 -4 195 -16z"/>
</g>
</svg>
